<?xml version="1.0" encoding="UTF-8"?>
<svg version="1.1" xmlns="http://www.w3.org/2000/svg" width="621" height="402">
<path d="M0 0 C22.31870436 -0.62325484 42.71510699 2.5768772 63.07275391 12.06201172 C63.9562854 12.47253784 63.9562854 12.47253784 64.85766602 12.89135742 C70.37034761 15.539828 75.42839877 18.73244625 80.51025391 22.12451172 C81.32429687 22.65367188 82.13833984 23.18283203 82.97705078 23.72802734 C84.13624023 24.49856445 84.13624023 24.49856445 85.31884766 25.28466797 C86.01679443 25.74623291 86.71474121 26.20779785 87.43383789 26.68334961 C89.07275391 28.06201172 89.07275391 28.06201172 90.07275391 31.06201172 C91.40361014 31.40510147 92.73727874 31.73736582 94.07275391 32.06201172 C95.60009766 33.51513672 95.60009766 33.51513672 97.01025391 35.31201172 C98.80414528 37.52402814 100.55169951 39.54095732 102.57275391 41.56201172 C108.52734755 47.51660536 113.39917603 54.06761384 118.07275391 61.06201172 C118.81332031 62.13128906 118.81332031 62.13128906 119.56884766 63.22216797 C137.1527916 90.24139891 141.85661102 126.24356375 135.27124023 157.48632812 C131.71132008 172.16685867 126.56792184 186.4830484 118.07275391 199.06201172 C117.27417969 200.26857422 117.27417969 200.26857422 116.45947266 201.49951172 C110.72398929 209.93792403 104.62773679 218.46772576 96.58056641 224.84326172 C94.99924262 226.06664187 94.99924262 226.06664187 93.50244141 227.71826172 C92.07275391 229.06201172 92.07275391 229.06201172 90.07275391 229.06201172 C89.74275391 230.05201172 89.41275391 231.04201172 89.07275391 232.06201172 C87.17431641 233.64013672 87.17431641 233.64013672 84.69775391 235.31201172 C83.79669922 235.92044922 82.89564453 236.52888672 81.96728516 237.15576172 C81.01208984 237.78482422 80.05689453 238.41388672 79.07275391 239.06201172 C78.12787109 239.69107422 77.18298828 240.32013672 76.20947266 240.96826172 C59.58420741 251.82182354 37.04171164 259.47990015 17.07275391 260.06201172 C16.39905762 260.08247559 15.72536133 260.10293945 15.03125 260.12402344 C-7.40009043 260.71062214 -27.41586787 257.44806638 -47.92724609 248.06201172 C-48.70583984 247.73072266 -49.48443359 247.39943359 -50.28662109 247.05810547 C-56.31084232 244.31890421 -61.6423156 240.65014008 -67.05224609 236.87451172 C-67.8239917 236.33882568 -68.5957373 235.80313965 -69.39086914 235.2512207 C-70.10670166 234.74147705 -70.82253418 234.2317334 -71.56005859 233.70654297 C-72.20861816 233.24610596 -72.85717773 232.78566895 -73.52539062 232.3112793 C-74.21930908 231.69289185 -74.21930908 231.69289185 -74.92724609 231.06201172 C-74.92724609 230.40201172 -74.92724609 229.74201172 -74.92724609 229.06201172 C-75.82636719 228.91505859 -75.82636719 228.91505859 -76.74365234 228.76513672 C-79.36986164 227.91948793 -80.17754838 226.96190354 -81.86474609 224.81201172 C-83.65863746 222.59999529 -85.40619169 220.58306612 -87.42724609 218.56201172 C-93.38183973 212.60741808 -98.25366821 206.05640959 -102.92724609 199.06201172 C-103.42095703 198.34916016 -103.91466797 197.63630859 -104.42333984 196.90185547 C-122.00728379 169.88262453 -126.7111032 133.88045969 -120.12573242 102.63769531 C-115.68201651 84.31253511 -108.37402894 68.52900656 -97.44287109 53.19091797 C-96.24076955 51.50239905 -95.07698108 49.7866142 -93.92724609 48.06201172 C-93.26724609 48.06201172 -92.60724609 48.06201172 -91.92724609 48.06201172 C-91.66427734 47.48322266 -91.40130859 46.90443359 -91.13037109 46.30810547 C-87.86394882 40.21007687 -82.42996141 35.15705567 -76.92724609 31.06201172 C-76.26724609 31.06201172 -75.60724609 31.06201172 -74.92724609 31.06201172 C-74.70166016 30.47162109 -74.47607422 29.88123047 -74.24365234 29.27294922 C-72.54625131 26.42212136 -70.70210916 25.38703516 -67.86474609 23.68701172 C-63.54139566 21.05344139 -59.33809398 18.32630669 -55.19287109 15.42138672 C-39.49722749 6.00400056 -18.10741965 0.58263043 0 0 Z M11.07275391 40.06201172 C10.7866626 40.614375 10.50057129 41.16673828 10.20581055 41.73583984 C4.87687157 52.00859584 -0.46633152 62.25474317 -6.28442383 72.26123047 C-8.27453076 75.45336929 -8.27453076 75.45336929 -8.92724609 79.06201172 C-9.58724609 79.06201172 -10.24724609 79.06201172 -10.92724609 79.06201172 C-11.44673828 80.12419922 -11.96623047 81.18638672 -12.50146484 82.28076172 C-19.28014592 96.04644829 -19.28014592 96.04644829 -22.82177734 101.28857422 C-24.37968095 103.78782594 -25.61221914 106.42600747 -26.92724609 109.06201172 C-28.8399094 112.65889464 -30.78951942 116.23538783 -32.73974609 119.81201172 C-33.24828125 120.75044922 -33.75681641 121.68888672 -34.28076172 122.65576172 C-37.22615648 128.06125172 -40.27455111 133.36687884 -43.53930664 138.58642578 C-45.24151823 141.62256044 -46.55611051 144.86269536 -47.92724609 148.06201172 C-29.11724609 148.39201172 -10.30724609 148.72201172 9.07275391 149.06201172 C8.61900391 153.59951172 8.16525391 158.13701172 7.69775391 162.81201172 C6.32587583 176.78894957 5.22822556 190.76779453 4.29443359 204.78125 C3.90513023 210.54276836 3.48797428 216.30231201 3.07275391 222.06201172 C5.67186028 219.57249269 7.21254637 217.20207848 8.88525391 213.99951172 C10.85002809 210.30282547 12.87586875 206.68796324 15.07275391 203.12451172 C17.15686722 199.69563634 19.01023317 196.23486969 20.76025391 192.62451172 C23.85818959 186.29785678 27.3712188 180.24507252 30.9387207 174.17553711 C35.58836683 166.25326512 39.9354718 158.17566597 44.29150391 150.08935547 C44.83162109 149.08710938 45.37173828 148.08486328 45.92822266 147.05224609 C47.02620818 145.01406157 48.1225582 142.97499517 49.21728516 140.93505859 C52.26269116 135.29124533 55.40624669 129.73793971 58.75683594 124.26928711 C62.49239753 118.49023037 62.49239753 118.49023037 64.07275391 112.06201172 C45.59275391 111.73201172 27.11275391 111.40201172 8.07275391 111.06201172 C9.0587075 93.84574505 10.13467358 76.76073788 12.10717773 59.6315918 C12.8452999 53.07108604 13.25765979 46.66445901 13.07275391 40.06201172 C12.41275391 40.06201172 11.75275391 40.06201172 11.07275391 40.06201172 Z " fill="#07998B" transform="translate(302.92724609375,70.93798828125)"/>
<path d="M0 0 C1 2 1 2 0.22265625 4.3828125 C-0.35162109 5.74019531 -0.35162109 5.74019531 -0.9375 7.125 C-1.31777344 8.03507813 -1.69804687 8.94515625 -2.08984375 9.8828125 C-2.39019531 10.58148438 -2.69054687 11.28015625 -3 12 C-3.66 12 -4.32 12 -5 12 C-5.33 14.97 -5.66 17.94 -6 21 C-6.99 21 -7.98 21 -9 21 C-9.99 23.475 -9.99 23.475 -11 26 C-11.66 26 -12.32 26 -13 26 C-13 27.65 -13 29.3 -13 31 C-13.99 31.33 -14.98 31.66 -16 32 C-16 32.66 -16 33.32 -16 34 C-16.66 34 -17.32 34 -18 34 C-16.70861679 30.62207632 -15.25175749 27.47482965 -13.5 24.3125 C-12.72269531 22.90484375 -12.72269531 22.90484375 -11.9296875 21.46875 C-11.29289062 20.3240625 -10.65609375 19.179375 -10 18 C-9.12747713 16.4271538 -8.25509099 14.85423174 -7.3828125 13.28125 C-4.92538281 8.85221227 -2.46386844 4.42545865 0 0 Z " fill="#159082" transform="translate(353,209)"/>
<path d="M0 0 C1 2 1 2 0 6 C17.16 6 34.32 6 52 6 C52 6.33 52 6.66 52 7 C44.32801938 7.16780721 36.6559046 7.32777413 28.98364258 7.48217773 C26.37129984 7.53569002 23.75899382 7.59102613 21.14672852 7.64819336 C17.40128502 7.72984758 13.65576029 7.80503427 9.91015625 7.87890625 C8.73413345 7.90594131 7.55811066 7.93297638 6.34645081 7.96083069 C5.26540573 7.98092697 4.18436066 8.00102325 3.07055664 8.02172852 C2.11347305 8.04171402 1.15638947 8.06169952 0.17030334 8.08229065 C-2 8 -2 8 -3 7 C-3.25 4.5625 -3.25 4.5625 -3 2 C-2.01 1.34 -1.02 0.68 0 0 Z " fill="#178A79" transform="translate(255,214)"/>
<path d="M0 0 C-0.33 0.66 -0.66 1.32 -1 2 C-2.65879559 2.37052135 -4.32736063 2.69806223 -6 3 C-7.55564731 3.58934079 -9.09755652 4.21600264 -10.625 4.875 C-15.92682566 7.04827088 -21.35410509 8.95119661 -27 10 C-27.66 9.67 -28.32 9.34 -29 9 C-8.88293898 -0.47587173 -8.88293898 -0.47587173 0 0 Z " fill="#2F9C90" transform="translate(278,77)"/>
<path d="M0 0 C0 0.33 0 0.66 0 1 C-1.80597656 1.07347656 -1.80597656 1.07347656 -3.6484375 1.1484375 C-5.22398198 1.22346343 -6.79950166 1.29901133 -8.375 1.375 C-9.1690625 1.4059375 -9.963125 1.436875 -10.78125 1.46875 C-15.36667375 1.51816421 -15.36667375 1.51816421 -19 4 C-20.87939453 4.31884766 -20.87939453 4.31884766 -23.1328125 4.4140625 C-24.34130859 4.47207031 -24.34130859 4.47207031 -25.57421875 4.53125 C-26.83685547 4.57765625 -26.83685547 4.57765625 -28.125 4.625 C-29.39923828 4.68300781 -29.39923828 4.68300781 -30.69921875 4.7421875 C-32.79911684 4.83656494 -34.89952891 4.91937586 -37 5 C-36.34 4.67 -35.68 4.34 -35 4 C-35 3.34 -35 2.68 -35 2 C-23.26207161 0.33588863 -11.85105258 -0.24949584 0 0 Z " fill="#48A499" transform="translate(319,71)"/>
<path d="M0 0 C1 2 1 2 0.375 4.375 C-1.91849237 8.75348543 -5.57503536 11.01639516 -10 13 C-10.99 13.495 -10.99 13.495 -12 14 C-12.33 13.01 -12.66 12.02 -13 11 C-11.625 9.5 -11.625 9.5 -10 8 C-9.34 8 -8.68 8 -8 8 C-7.79375 7.4225 -7.5875 6.845 -7.375 6.25 C-5.50249112 3.18589456 -3.03041481 1.84460032 0 0 Z " fill="#39A699" transform="translate(236,94)"/>
<path d="M0 0 C0.33 0 0.66 0 1 0 C1.1074664 6.60246686 0.71245093 13.00121203 0 19.5625 C-0.09539062 20.47580078 -0.19078125 21.38910156 -0.2890625 22.33007812 C-0.52191875 24.55385532 -0.75895855 26.77709776 -1 29 C-1.33 29 -1.66 29 -2 29 C-4.22822983 18.97296577 -3.19293616 9.65483076 0 0 Z " fill="#58B3A8" transform="translate(308,261)"/>
<path d="M0 0 C0.99 0.33 1.98 0.66 3 1 C2.01 9.91 1.02 18.82 0 28 C-0.66 28 -1.32 28 -2 28 C-1.48484207 18.65043165 -0.94590721 9.31819232 0 0 Z " fill="#4BA59D" transform="translate(315,121)"/>
<path d="M0 0 C3.40424844 1.13474948 4.21653709 1.96811304 6 5 C5.67 5.99 5.34 6.98 5 8 C5.66 8.33 6.32 8.66 7 9 C8.80643583 11.25804478 10.39470416 13.59205625 12 16 C11.34 17.32 10.68 18.64 10 20 C8.69741157 17.98553185 7.4081308 15.96431387 6.125 13.9375 C5.76019531 13.37611328 5.39539063 12.81472656 5.01953125 12.23632812 C2.50963982 8.24331902 1.11014122 4.5866361 0 0 Z " fill="#4BA99E" transform="translate(192,253)"/>
<path d="M0 0 C-6.88410127 4.58940085 -14.98173474 4.26977341 -23 4 C-22.67 3.34 -22.34 2.68 -22 2 C-19.60293954 1.51580574 -17.29697798 1.15694782 -14.875 0.875 C-12.92207031 0.62363281 -12.92207031 0.62363281 -10.9296875 0.3671875 C-7.25691516 0.02400599 -3.68577202 -0.06701404 0 0 Z " fill="#4CA99D" transform="translate(343,326)"/>
<path d="M0 0 C0.33 0 0.66 0 1 0 C1 2.64 1 5.28 1 8 C-0.32 8.33 -1.64 8.66 -3 9 C-3.12375 9.763125 -3.2475 10.52625 -3.375 11.3125 C-4 14 -4 14 -6 17 C-6.66 16.67 -7.32 16.34 -8 16 C-6.57250019 12.20950293 -4.83763458 8.72877544 -2.875 5.1875 C-2.33617187 4.21167969 -1.79734375 3.23585937 -1.2421875 2.23046875 C-0.83226562 1.49441406 -0.42234375 0.75835937 0 0 Z " fill="#52AEA5" transform="translate(334,243)"/>
<path d="M0 0 C0.99 0.33 1.98 0.66 3 1 C3 1.66 3 2.32 3 3 C4.98 3.66 6.96 4.32 9 5 C9.12375 6.134375 9.2475 7.26875 9.375 8.4375 C9.58125 9.613125 9.7875 10.78875 10 12 C10.66 12.33 11.32 12.66 12 13 C11.01 13 10.02 13 9 13 C7.21745592 11.03463088 5.60827194 9.09667354 4 7 C3.236875 6.0925 2.47375 5.185 1.6875 4.25 C0 2 0 2 0 0 Z " fill="#3DA69A" transform="translate(203,273)"/>
<path d="M0 0 C0.99 0.33 1.98 0.66 3 1 C3.825 0.979375 4.65 0.95875 5.5 0.9375 C8 1 8 1 11 3 C12.54766142 3.5827119 14.11192222 4.12264187 15.6875 4.625 C16.89986328 5.01558594 16.89986328 5.01558594 18.13671875 5.4140625 C19.05904297 5.70410156 19.05904297 5.70410156 20 6 C20 6.33 20 6.66 20 7 C12.36945905 6.38955672 5.29810526 4.20378179 -2 2 C-1.34 1.34 -0.68 0.68 0 0 Z " fill="#4CAC9F" transform="translate(269,322)"/>
<path d="M0 0 C1.22617563 3.9614905 0.43271323 6.12324655 -1 10 C-1 10.66 -1 11.32 -1 12 C-5.47058824 16 -5.47058824 16 -8 16 C-6.57250019 12.20950293 -4.83763458 8.72877544 -2.875 5.1875 C-2.33617187 4.21167969 -1.79734375 3.23585938 -1.2421875 2.23046875 C-0.83226562 1.49441406 -0.42234375 0.75835937 0 0 Z " fill="#379F95" transform="translate(325,259)"/>
<path d="M0 0 C1.65 0 3.3 0 5 0 C5.14525497 8.05358138 4.71413279 15.97875848 4 24 C3.67 24 3.34 24 3 24 C2.98018066 23.34402832 2.96036133 22.68805664 2.93994141 22.01220703 C2.84487493 19.04938931 2.73512248 16.08729468 2.625 13.125 C2.5940625 12.09246094 2.563125 11.05992187 2.53125 9.99609375 C2.49257813 9.00996094 2.45390625 8.02382812 2.4140625 7.0078125 C2.3826416 6.09660645 2.3512207 5.18540039 2.31884766 4.24658203 C2.20117489 1.80068814 2.20117489 1.80068814 0 0 Z " fill="#5EB0A5" transform="translate(307,220)"/>
<path d="M0 0 C0.99 0 1.98 0 3 0 C1.7023817 5.29860806 -0.15015702 9.34525646 -3 14 C-3.66 13.34 -4.32 12.68 -5 12 C-4.60467975 9.54901444 -3.78698574 7.36095721 -3 5 C-2.34 5 -1.68 5 -1 5 C-0.67 3.35 -0.34 1.7 0 0 Z " fill="#49A89C" transform="translate(426,253)"/>
<path d="M0 0 C4.75 0.75 4.75 0.75 7 3 C8.98356483 3.71408334 10.98315437 4.38617742 13 5 C13 6.32 13 7.64 13 9 C7.97290493 7.42903279 3.97133531 4.38006951 0 1 C0 0.67 0 0.34 0 0 Z " fill="#3AA094" transform="translate(231,303)"/>
<path d="M0 0 C0 0.66 0 1.32 0 2 C0.66 2.33 1.32 2.66 2 3 C-0.60444348 3.05394705 -3.20776998 3.09364469 -5.8125 3.125 C-6.55048828 3.14175781 -7.28847656 3.15851563 -8.04882812 3.17578125 C-11.91246426 3.21074628 -13.70903668 3.19397555 -17 1 C-14.54171921 0.83252588 -12.08338135 0.6659856 -9.625 0.5 C-8.92632812 0.45230469 -8.22765625 0.40460938 -7.5078125 0.35546875 C-2.2265625 0 -2.2265625 0 0 0 Z " fill="#149085" transform="translate(303,326)"/>
<path d="M0 0 C0.99 0.33 1.98 0.66 3 1 C1.77472971 5.05281712 0.30119506 8.44360764 -2 12 C-2.66 11.67 -3.32 11.34 -4 11 C-4 10.34 -4 9.68 -4 9 C-4.66 8.67 -5.32 8.34 -6 8 C-5.01 7.67 -4.02 7.34 -3 7 C-3 6.34 -3 5.68 -3 5 C-2.01 5 -1.02 5 0 5 C0 3.35 0 1.7 0 0 Z " fill="#37A394" transform="translate(263,197)"/>
<path d="M0 0 C1.43655854 -0.08131463 2.8744483 -0.13933559 4.3125 -0.1875 C5.51326172 -0.23970703 5.51326172 -0.23970703 6.73828125 -0.29296875 C9 0 9 0 10.79296875 1.32421875 C12 3 12 3 12 6 C7.76570244 4.68938409 3.92592596 3.05643741 0 1 C0 0.67 0 0.34 0 0 Z " fill="#45ABA0" transform="translate(249,315)"/>
<path d="M0 0 C4.4425058 0.51657044 7.25701103 1.6006481 11 4 C12.65369357 4.69822617 14.31727014 5.37498605 16 6 C13.21136993 7.39431504 11.07921132 7.25660094 8 7 C7.34 6.01 6.68 5.02 6 4 C4.03247172 2.93753473 2.03412421 1.92862192 0 1 C0 0.67 0 0.34 0 0 Z " fill="#53B0A6" transform="translate(356,80)"/>
<path d="M0 0 C0.33 0 0.66 0 1 0 C1.05382106 2.62527189 1.09358313 5.24944713 1.125 7.875 C1.14175781 8.62136719 1.15851563 9.36773437 1.17578125 10.13671875 C1.1933959 12.09194461 1.10320189 14.04742021 1 16 C0.34 16.66 -0.32 17.32 -1 18 C-2.12356786 14.62929642 -1.94408459 12.51855445 -1.625 9 C-1.48964844 7.4221875 -1.48964844 7.4221875 -1.3515625 5.8125 C-1 3 -1 3 0 0 Z " fill="#1C8B7F" transform="translate(308,245)"/>
<path d="M0 0 C1.65 0.33 3.3 0.66 5 1 C2.31941902 4.57410797 -0.42589203 7.31941902 -4 10 C-3.67 8.02 -3.34 6.04 -3 4 C-2.34 4 -1.68 4 -1 4 C-0.67 2.68 -0.34 1.36 0 0 Z " fill="#45A69B" transform="translate(400,289)"/>
<path d="M0 0 C1.32 0 2.64 0 4 0 C3.67 1.32 3.34 2.64 3 4 C2.34 4 1.68 4 1 4 C0.896875 4.763125 0.79375 5.52625 0.6875 6.3125 C-0.04364039 9.17059424 -0.76951913 10.15742885 -3 12 C-2.49202991 7.6822542 -1.80317221 3.96697886 0 0 Z " fill="#41A598" transform="translate(291,146)"/>
<path d="M0 0 C-2.48803584 3.00251104 -4.83481448 3.77712868 -8.5625 4.75 C-9.53316406 5.01296875 -10.50382813 5.2759375 -11.50390625 5.546875 C-14 6 -14 6 -16 5 C-5.62642369 -0.74031891 -5.62642369 -0.74031891 0 0 Z " fill="#55ABA4" transform="translate(265,81)"/>
<path d="M0 0 C0.66 0.33 1.32 0.66 2 1 C1.48041715 5.37934119 0.94324258 9.68803391 0 14 C-0.33 14 -0.66 14 -1 14 C-1.06058594 13.31292969 -1.12117188 12.62585938 -1.18359375 11.91796875 C-1.26738281 11.01691406 -1.35117187 10.11585937 -1.4375 9.1875 C-1.51871094 8.29417969 -1.59992188 7.40085937 -1.68359375 6.48046875 C-1.93489767 3.87256441 -1.93489767 3.87256441 -3 1 C-2.01 0.67 -1.02 0.34 0 0 Z " fill="#108C7F" transform="translate(318,104)"/>
<path d="M0 0 C0.99 0 1.98 0 3 0 C3.6875 1.8125 3.6875 1.8125 4 4 C2.5625 5.75 2.5625 5.75 1 7 C0.01 6.67 -0.98 6.34 -2 6 C-1.125 1.125 -1.125 1.125 0 0 Z " fill="#249C8D" transform="translate(315,278)"/>
<path d="M0 0 C1 2 1 2 0.22265625 4.3828125 C-0.16019531 5.28773438 -0.54304688 6.19265625 -0.9375 7.125 C-1.31777344 8.03507813 -1.69804687 8.94515625 -2.08984375 9.8828125 C-2.39019531 10.58148438 -2.69054687 11.28015625 -3 12 C-3.99 12 -4.98 12 -6 12 C-4.43358249 7.69235185 -2.31663844 3.93828536 0 0 Z " fill="#4DAAA0" transform="translate(353,209)"/>
<path d="M0 0 C1.31625194 2.63250388 0.74813658 3.80179056 0.0625 6.625 C-0.13214844 7.44226563 -0.32679688 8.25953125 -0.52734375 9.1015625 C-0.76130859 10.04128906 -0.76130859 10.04128906 -1 11 C-2.65 11.33 -4.3 11.66 -6 12 C-4.43358249 7.69235185 -2.31663844 3.93828536 0 0 Z " fill="#59B0A9" transform="translate(365,187)"/>
<path d="M0 0 C5.52677733 -0.19392201 9.75614911 0.2520497 15 2 C15 2.33 15 2.66 15 3 C8.375 4.25 8.375 4.25 5 2 C3.34450469 1.61500109 1.6777567 1.27206865 0 1 C0 0.67 0 0.34 0 0 Z " fill="#379D8F" transform="translate(339,76)"/>
<path d="M0 0 C1.25541557 3.76624671 0.37061958 5.37188934 -1 9 C-1.66 9 -2.32 9 -3 9 C-3 9.66 -3 10.32 -3 11 C-3.66 11 -4.32 11 -5 11 C-3.55049545 7.2089881 -1.84827434 3.6125362 0 0 Z " fill="#50ACA3" transform="translate(340,232)"/>
<path d="M0 0 C1.65 0 3.3 0 5 0 C5 1.32 5 2.64 5 4 C4.01 4 3.02 4 2 4 C1.34 5.32 0.68 6.64 0 8 C0 5.36 0 2.72 0 0 Z " fill="#4EAEA8" transform="translate(312,107)"/>
<path d="M0 0 C0.33 0.66 0.66 1.32 1 2 C1.66 2 2.32 2 3 2 C5.125 9.625 5.125 9.625 4 13 C3.32694982 11.39850114 2.66177773 9.79368971 2 8.1875 C1.62875 7.29417969 1.2575 6.40085938 0.875 5.48046875 C0 3 0 3 0 0 Z " fill="#5EB6AD" transform="translate(187,240)"/>
<path d="M0 0 C0.66 0.33 1.32 0.66 2 1 C1.3125 3.375 1.3125 3.375 0 6 C-2.625 7.3125 -2.625 7.3125 -5 8 C-4.45773019 4.20411134 -2.79872437 2.52788007 0 0 Z " fill="#54B0A5" transform="translate(220,107)"/>
<path d="M0 0 C-1.28913487 0.67154933 -2.58140204 1.33708859 -3.875 2 C-4.59429687 2.37125 -5.31359375 2.7425 -6.0546875 3.125 C-8 4 -8 4 -10 4 C-10 3.01 -10 2.02 -10 1 C-8.71073008 0.63720544 -7.41846728 0.28503302 -6.125 -0.0625 C-5.40570313 -0.25972656 -4.68640625 -0.45695312 -3.9453125 -0.66015625 C-2 -1 -2 -1 0 0 Z " fill="#5CADA6" transform="translate(372,316)"/>
<path d="M0 0 C1.43088528 2.86177057 0.59991697 4.93375773 0 8 C-0.99 7.67 -1.98 7.34 -3 7 C-3.1875 4.625 -3.1875 4.625 -3 2 C-2.01 1.34 -1.02 0.68 0 0 Z " fill="#179186" transform="translate(255,214)"/>
<path d="M0 0 C0.6875 1.75 0.6875 1.75 1 4 C-0.4375 6.25 -0.4375 6.25 -2 8 C-2.66 7.67 -3.32 7.34 -4 7 C-2.92598892 4.08482708 -2.22189824 2.22189824 0 0 Z " fill="#369F93" transform="translate(330,252)"/>
<path d="M0 0 C0.33 0 0.66 0 1 0 C1.33 3.3 1.66 6.6 2 10 C1.01 10.495 1.01 10.495 0 11 C-1.05404945 7.01803543 -0.84098656 4.01804691 0 0 Z " fill="#52B2AA" transform="translate(437,174)"/>
<path d="M0 0 C3.08089673 2.77280706 4.68775452 5.06326356 6 9 C4.125 8.4375 4.125 8.4375 2 7 C0.75 3.375 0.75 3.375 0 0 Z " fill="#58ACA2" transform="translate(415,125)"/>
<path d="M0 0 C0.98120464 3.05263664 0.98120464 4.94736336 0 8 C-1.32 8.33 -2.64 8.66 -4 9 C-2.80100302 5.9168649 -1.52299523 2.93720508 0 0 Z " fill="#4FAFA6" transform="translate(346,221)"/>
<path d="M0 0 C0 3.69418201 -1.28179295 5.77836178 -3 9 C-3.33 9 -3.66 9 -4 9 C-4 7.02 -4 5.04 -4 3 C-3.34 3 -2.68 3 -2 3 C-2 2.34 -2 1.68 -2 1 C-1.34 0.67 -0.68 0.34 0 0 Z " fill="#58AFA7" transform="translate(308,121)"/>
<path d="M0 0 C0.88492145 2.47778006 1.11637742 3.66056586 0.25 6.1875 C-1 8 -1 8 -4 9 C-2.80100302 5.9168649 -1.52299523 2.93720508 0 0 Z " fill="#5DB1A4" transform="translate(325,259)"/>
<path d="M0 0 C0.99 0 1.98 0 3 0 C3.33 2.64 3.66 5.28 4 8 C1.10067643 5.60490662 0.49831724 3.68754757 0 0 Z " fill="#4AA69B" transform="translate(433,166)"/>
<path d="M0 0 C1 2 1 2 0.44140625 3.9453125 C0.15136719 4.66460937 -0.13867188 5.38390625 -0.4375 6.125 C-0.72496094 6.84945312 -1.01242188 7.57390625 -1.30859375 8.3203125 C-1.53675781 8.87460938 -1.76492187 9.42890625 -2 10 C-2.66 9.67 -3.32 9.34 -4 9 C-2.94124926 5.59687262 -1.99097846 2.98646769 0 0 Z " fill="#69B7B1" transform="translate(200,132)"/>
</svg>
